<?xml version="1.0" encoding="utf-8"?>
<!-- Generator: Adobe Illustrator 16.0.3, SVG Export Plug-In . SVG Version: 6.00 Build 0)  -->
<!DOCTYPE svg PUBLIC "-//W3C//DTD SVG 1.1//EN" "http://www.w3.org/Graphics/SVG/1.1/DTD/svg11.dtd">
<svg version="1.1" id="_x31_dafe9df-d67d-4e87-ac14-a8d8c30fce82"
	 xmlns="http://www.w3.org/2000/svg" xmlns:xlink="http://www.w3.org/1999/xlink" x="0px" y="0px" width="1113.61px"
	 height="785.89px" viewBox="0 0 1113.61 785.89" enable-background="new 0 0 1113.61 785.89" xml:space="preserve">
<title>back_in_the_day</title>
<path opacity="0.1" fill="#FF3B3F" enable-background="new    " d="M1047.017,458.218c-39.15,53.721-26.23,130.4-3.6,191.49
	c7.58,20.449,16.189,42.08,12.26,64.33c-4.801,27.199-27.361,47.58-50.811,58.68c-42.75,20.23-93.25,17-131.49-8.49
	c-33-22-56.23-58.561-89.869-79.51c-56.301-35.051-129.391-19.391-192.051,7.369c-44.33,18.932-92.859,43.311-136.08,25.852
	c-30.4-12.301-50.869-43.611-61.641-77.08c-5.199-16.16-8.84-33.701-19.199-46.352c-6.16-7.52-14.301-12.76-22.67-17.139
	c-76.391-40-174.65-15-248.71-59.631c-50-30.139-81.12-88.629-94.05-150.119c-12.93-61.49-9.73-126.4-4.58-190.2
	c3.66-45.34,9.449-93.79,36.71-129.42c28.829-37.69,77.14-52.67,120.36-46.76c43.219,5.91,81.939,29.94,115.84,58.54
	c42.369,35.75,81.379,80.62,134.109,94.18c35.91,9.24,74.061,2.7,111.391-0.189c62.4-4.82,124.58,0.729,186.379,7
	c59.16,6,118.73,12.7,174.762,32.37c39.648,13.92,71.078,40.23,108.408,58.21c24.33,11.72,51.102,14.44,74,29.58
	c28.262,18.65,53.801,51.69,45.512,91.34C1104.156,409.939,1067.796,429.708,1047.017,458.218z"/>
</svg>
