<?xml version="1.0" encoding="utf-8"?>
<!-- Generator: Adobe Illustrator 16.0.3, SVG Export Plug-In . SVG Version: 6.00 Build 0)  -->
<!DOCTYPE svg PUBLIC "-//W3C//DTD SVG 1.1 Tiny//EN" "http://www.w3.org/Graphics/SVG/1.1/DTD/svg11-tiny.dtd">
<svg version="1.1" baseProfile="tiny" id="be0c93f6-e99a-4a4f-8486-34e03bbec6e4"
	 xmlns="http://www.w3.org/2000/svg" xmlns:xlink="http://www.w3.org/1999/xlink" x="0px" y="0px" width="769.002px"
	 height="771.637px" viewBox="0 0 769.002 771.637" xml:space="preserve">
<ellipse cx="356.501" cy="299.818" rx="82.5" ry="81.5"/>
<path d="M138.001,405.931"/>
<path d="M431.048,550.627c0,8.981-5.691,16.264-12.714,16.264H296.495c-7.021,0-12.714-7.282-12.714-16.264V408.318
	c0-8.981,5.692-16.264,12.714-16.264h121.839c7.022,0,12.714,7.282,12.714,16.264V550.627z"/>
<path d="M491.294,554.402c0,9.195-7.883,16.65-17.604,16.65h-230.32c-9.723,0-17.604-7.455-17.604-16.65v-92.969
	c0-9.195,7.881-16.65,17.604-16.65h230.32c9.721,0,17.604,7.455,17.604,16.65V554.402z"/>
<ellipse cx="314.276" cy="466.29" rx="88.509" ry="74.236"/>
<ellipse cx="402.785" cy="466.29" rx="88.509" ry="74.236"/>
</svg>
